<svg width="24" height="24" viewBox="0 0 24 24" fill="none" xmlns="http://www.w3.org/2000/svg">
<path d="M12 3.2002C8.65121 3.2002 4.30469 4.03926 4.30469 4.03926L4.29376 4.05176C2.76854 4.29569 1.60001 5.6063 1.60001 7.2002V12.0002V12.0018V16.8002V16.8018C1.60149 17.563 1.8743 18.2988 2.36944 18.8769C2.86459 19.4551 3.54963 19.8379 4.30157 19.9564L4.30469 19.9611C4.30469 19.9611 8.65121 20.8018 12 20.8018C15.3488 20.8018 19.6953 19.9611 19.6953 19.9611L19.6969 19.9596C20.4496 19.8413 21.1355 19.4582 21.631 18.8793C22.1265 18.3005 22.3992 17.5638 22.4 16.8018V16.8002V12.0018V12.0002V7.2002C22.3989 6.4387 22.1262 5.70256 21.6311 5.12404C21.1359 4.54553 20.4506 4.16256 19.6984 4.04395L19.6953 4.03926C19.6953 4.03926 15.3488 3.2002 12 3.2002ZM9.60001 8.31895L16 12.0002L9.60001 15.6814V8.31895Z" fill="#333333"/>
</svg>
